:SAMPLES-PER-SECOND 30
:FULLY-SPECIFIED
:DEGREES
264
root  1.38676 40.0924 12.3816 -174.698 -8.68674 -179.827
RightUpLeg  -7.8385 -7.56307 -5.0671
RightLeg  8.75428 -4.25337 -0.485969
RightFoot  -2.91019 -0.360047 4.61158
RightToes  -1.33073e-015 0 -3.6325e-017
Spine  8.90148 -0.42372 9.56062
Spine1  12.9795 -0.0120638 0.45729
HEad  7.4803 -13.0095 5.11519
LeftShoulder1  7.60954 -16.208 -32.5687
LeftArm  40.873 -23.1407 -59.0147
LeftForeArm  -38.0598 -25.8307 -7.14629
LeftHand  -0.246645 0.021 5.37786
RightShoulder  8.55971 16.4612 36.836
RightArm  20.8251 25.8178 41.0997
RightForeArm  -8.95009 26.5044 6.15319
RightHand  -0.24729 -0.0210522 -5.37781
LeftUpLeg  -12.7789 14.8881 11.7929
LeftLeg  8.43984 -1.3635 -1.79423
LeftFoot  5.4404 1.35708 -9.41093
LeftToes  5.09284e-011 3.02203e-011 3.83118e-011
265
root  1.37067 40.0675 12.4781 -174.695 -8.74629 -179.62
RightUpLeg  -8.07298 -7.46485 -4.88557
RightLeg  8.87116 -4.40357 -0.490977
RightFoot  -2.87378 -0.362556 4.63059
RightToes  -1.33073e-015 0 -3.6325e-017
Spine  9.47562 -0.527776 9.76335
Spine1  12.7408 -0.137124 0.686703
HEad  7.95042 -13.0327 5.2244
LeftShoulder1  7.60808 -16.3095 -32.3621
LeftArm  42.1394 -24.5652 -61.6335
LeftForeArm  -43.2286 -24.0013 -7.08118
LeftHand  -0.246645 0.021 5.37786
RightShoulder  8.72306 16.6418 37.2478
RightArm  22.1626 26.5194 40.9564
RightForeArm  -8.50792 25.8219 5.97162
RightHand  -0.24729 -0.0210522 -5.37781
LeftUpLeg  -12.6538 14.3931 12.0927
LeftLeg  7.79851 -4.71936 -2.43109
LeftFoot  4.76534 1.32469 -9.55184
LeftToes  5.09284e-011 3.02203e-011 3.83118e-011
266
root  1.27132 40.0302 12.5639 -174.631 -8.51743 -179.351
RightUpLeg  -8.46589 -7.30235 -4.71432
RightLeg  9.09023 -4.33915 -0.577278
RightFoot  -2.82071 -0.373975 4.75822
RightToes  -1.33073e-015 0 -3.6325e-017
Spine  9.9868 -0.56667 9.8127
Spine1  12.4346 -0.259454 1.10576
HEad  8.64407 -12.9614 5.16245
LeftShoulder1  7.5568 -16.3731 -31.9793
LeftArm  40.2721 -25.5944 -63.7717
LeftForeArm  -44.1574 -22.025 -7.96678
LeftHand  -0.246645 0.021 5.37786
RightShoulder  8.86865 16.7935 37.6271
RightArm  23.2764 27.09 40.9152
RightForeArm  -7.32489 25.3153 5.79644
RightHand  -0.24729 -0.0210522 -5.37781
LeftUpLeg  -12.3884 13.8094 12.308
LeftLeg  7.16903 -6.36067 -2.64516
LeftFoot  4.324 1.31171 -9.70993
LeftToes  5.09284e-011 3.02203e-011 3.83118e-011
267
root  1.08627 40.0043 12.6385 -174.542 -8.02921 -179.131
RightUpLeg  -8.79538 -7.21741 -4.73328
RightLeg  9.10572 -3.91752 -0.601107
RightFoot  -2.59811 -0.400365 5.00075
RightToes  -1.33073e-015 0 -3.6325e-017
Spine  10.4077 -0.553116 9.62776
Spine1  12.2126 -0.36741 1.59037
HEad  9.46183 -12.8347 4.96135
LeftShoulder1  7.48917 -16.4143 -31.5581
LeftArm  36.6173 -26.3366 -65.2574
LeftForeArm  -41.2834 -20.1607 -9.1712
LeftHand  -0.246645 0.021 5.37786
RightShoulder  8.93361 16.8871 37.7397
RightArm  24.1409 27.543 41.1655
RightForeArm  -5.64181 25.1678 5.67948
RightHand  -0.24729 -0.0210522 -5.37781
LeftUpLeg  -12.0098 13.084 12.3252
LeftLeg  6.58476 -5.69926 -2.47123
LeftFoot  3.74102 1.26189 -9.68665
LeftToes  5.09284e-011 3.02203e-011 3.83118e-011
268
root  0.836647 40.0041 12.7 -174.478 -7.39058 -179.002
RightUpLeg  -8.88761 -7.18258 -4.93995
RightLeg  8.73292 -3.29456 -0.583831
RightFoot  -2.1995 -0.4358 5.25878
RightToes  -1.33073e-015 0 -3.6325e-017
Spine  10.7159 -0.48455 9.09152
Spine1  12.2052 -0.465322 2.10939
HEad  10.2095 -12.6793 4.74333
LeftShoulder1  7.41288 -16.4259 -31.15
LeftArm  33.8819 -26.9677 -66.2188
LeftForeArm  -37.1578 -18.7313 -9.99091
LeftHand  -0.246645 0.021 5.37786
RightShoulder  8.94216 16.9432 37.6629
RightArm  24.7455 27.8999 41.5743
RightForeArm  -3.99232 25.2382 5.61303
RightHand  -0.24729 -0.0210522 -5.37781
LeftUpLeg  -11.6615 12.4392 12.1524
LeftLeg  6.20708 -4.00281 -2.25857
LeftFoot  2.99996 1.17379 -9.45934
LeftToes  5.09284e-011 3.02203e-011 3.83118e-011
